# File created by Blade
# Date/Time:  Thu Sep 25 15:41:58 2014
# Frame Rate: 120.000 fps
#------------------------------------------------------
:FULLY-SPECIFIED
:DEGREES
561
root -19.735232 35.801931 -1.241373 203.795493 -79.822868 -6.497813
Spine -36.316316 7.391065 -0.355102
Head -92.642084 6.742589 -1.176323
LeftShoulder -15.083200 10.575509 19.555511
LeftArm 134.000715 -58.611814 -88.004398
LeftForeArm 8.921387 -0.000000 29.246692
LeftHand -42.036700 0.000000 93.694111
LeftHandThumb1 -26.253704 0.000000 33.147579
RightShoulder -18.934930 5.848292 -24.389602
RightArm 121.313383 43.499549 71.631613
RightForeArm -19.418630 -0.000000 30.965902
RightHand -7.953469 -0.000000 -77.865456
RightHandThumb1 -24.326973 -0.000000 -32.862282
LeftUpLeg -2.768063 43.510682 65.530967
LeftLeg -4.798774 -0.000000 0.000000
LeftFoot 38.556388 28.394356 -9.416742
LeftToeBase 18.432131 -0.000000 -0.000000
RightUpLeg 8.181402 -13.798584 -56.855692
RightLeg 1.431803 -0.000000 -0.000000
RightFoot 42.026278 2.295774 -4.770762
RightToeBase 8.378552 -0.000000 -0.000000
562
root -19.765526 35.845073 -1.252464 203.703505 -79.732839 -6.402235
Spine -36.026633 7.532657 -0.255644
Head -92.544715 6.487533 -1.156113
LeftShoulder -14.822636 8.670833 20.358022
LeftArm 130.554991 -58.659018 -85.828424
LeftForeArm 9.097117 -0.000000 29.441106
LeftHand -41.704619 -0.000000 94.064035
LeftHandThumb1 -26.253704 0.000000 33.147579
RightShoulder -19.086050 5.834635 -24.712193
RightArm 121.571126 43.626317 71.859127
RightForeArm -19.284231 -0.000000 30.789929
RightHand -7.964060 -0.000000 -77.954632
RightHandThumb1 -24.326973 -0.000000 -32.862282
LeftUpLeg -2.895414 43.182366 64.915738
LeftLeg -4.523756 -0.000000 0.000000
LeftFoot 38.688631 28.547493 -9.645556
LeftToeBase 18.628009 -0.000000 -0.000000
RightUpLeg 7.892227 -13.800046 -56.303236
RightLeg 1.224829 -0.000000 -0.000000
RightFoot 42.328603 2.463266 -4.160144
RightToeBase 8.391706 -0.000000 -0.000000
563
root -19.791304 35.894324 -1.261397 203.753436 -79.640369 -6.472012
Spine -35.723073 7.627865 -0.176774
Head -92.415902 6.316781 -1.199825
LeftShoulder -14.612285 7.108868 21.055630
LeftArm 127.680593 -58.836793 -83.990612
LeftForeArm 8.965046 -0.000000 29.448188
LeftHand -41.055843 -0.000000 94.517062
LeftHandThumb1 -26.253704 0.000000 33.147579
RightShoulder -19.234462 5.760204 -24.991157
RightArm 121.840875 43.919920 71.923411
RightForeArm -18.876938 -0.000000 30.435638
RightHand -7.941279 -0.000000 -78.115229
RightHandThumb1 -24.326973 -0.000000 -32.862282
LeftUpLeg -2.952713 42.820846 64.322546
LeftLeg -4.336042 -0.000000 0.000000
LeftFoot 38.770370 29.001657 -10.450514
LeftToeBase 18.203798 -0.000000 -0.000000
RightUpLeg 7.625655 -14.029775 -55.829741
RightLeg 1.027664 -0.000000 -0.000000
RightFoot 42.613066 2.895188 -3.818413
RightToeBase 8.783388 -0.000000 -0.000000
564
root -19.808168 35.953491 -1.273905 203.566397 -79.546233 -6.416227
Spine -35.323148 7.703167 -0.102709
Head -92.254208 6.243689 -1.230858
LeftShoulder -14.464650 5.572890 21.878964
LeftArm 124.607793 -58.952197 -82.023314
LeftForeArm 8.794972 0.000000 29.549415
LeftHand -41.047824 -0.000000 94.884028
LeftHandThumb1 -26.253704 0.000000 33.147579
RightShoulder -19.319831 5.732243 -25.228819
RightArm 122.004019 44.282408 71.900505
RightForeArm -18.438241 -0.000000 30.035955
RightHand -7.914434 -0.000000 -78.222571
RightHandThumb1 -24.326973 -0.000000 -32.862282
LeftUpLeg -2.912492 42.387077 63.829219
LeftLeg -4.203470 -0.000000 0.000000
LeftFoot 38.936824 28.661868 -10.536799
LeftToeBase 18.752255 -0.000000 -0.000000
RightUpLeg 7.468421 -14.357705 -55.396094
RightLeg 0.781346 -0.000000 -0.000000
RightFoot 42.930876 3.439122 -3.646389
RightToeBase 8.457635 -0.000000 -0.000000
565
root -19.815329 36.014764 -1.286531 203.422923 -79.430191 -6.442668
Spine -34.946578 7.790821 -0.088458
Head -92.025895 6.150690 -1.185045
LeftShoulder -14.320381 4.426466 22.628715
LeftArm 122.124935 -59.126500 -80.459959
LeftForeArm 8.644307 -0.000000 29.547869
LeftHand -40.936746 -0.000000 95.201863
LeftHandThumb1 -26.253704 0.000000 33.147579
RightShoulder -19.402138 5.675232 -25.430150
RightArm 122.161518 44.604186 71.857029
RightForeArm -17.966579 -0.000000 29.561848
RightHand -7.826591 -0.000000 -78.321366
RightHandThumb1 -24.326973 -0.000000 -32.862282
LeftUpLeg -2.816649 41.916581 63.363767
LeftLeg -4.095139 -0.000000 0.000000
LeftFoot 39.160429 28.360552 -10.634918
LeftToeBase 19.085248 -0.000000 -0.000000
RightUpLeg 7.327414 -14.785994 -55.017011
RightLeg 0.552328 -0.000000 -0.000000
RightFoot 43.134116 3.840116 -3.271655
RightToeBase 8.825682 -0.000000 -0.000000
566
root -19.831507 36.076185 -1.297109 203.013908 -79.233886 -6.172359
Spine -34.562354 7.918117 -0.012644
Head -91.887952 6.087084 -1.152517
LeftShoulder -14.239183 3.440481 23.320120
LeftArm 119.794466 -59.406749 -79.007695
LeftForeArm 8.357007 0.000000 29.629695
LeftHand -40.978732 -0.000000 95.459671
LeftHandThumb1 -26.253704 0.000000 33.147579
RightShoulder -19.388903 5.653228 -25.588497
RightArm 122.250615 45.036371 71.706566
RightForeArm -17.352250 -0.000000 29.134396
RightHand -7.656096 -0.000000 -78.337603
RightHandThumb1 -24.326973 -0.000000 -32.862282
LeftUpLeg -2.623789 41.492484 63.005686
LeftLeg -4.031576 -0.000000 0.000000
LeftFoot 39.309197 28.285194 -10.908317
LeftToeBase 19.480827 -0.000000 -0.000000
RightUpLeg 7.021675 -15.016087 -54.576472
RightLeg 0.395225 -0.000000 -0.000000
RightFoot 43.302510 4.081707 -2.995060
RightToeBase 9.389337 -0.000000 -0.000000
567
root -19.842220 36.134995 -1.310115 202.586480 -79.066892 -5.918842
Spine -34.165777 8.015936 0.078361
Head -91.773399 5.970744 -1.106495
LeftShoulder -14.095159 2.682794 23.893412
LeftArm 117.861864 -59.783368 -77.831069
LeftForeArm 8.043797 -0.000000 29.753333
LeftHand -40.942578 -0.000000 95.642861
LeftHandThumb1 -26.253704 0.000000 33.147579
RightShoulder -19.463855 5.653330 -25.843524
RightArm 122.443668 45.156973 71.843546
RightForeArm -17.197735 0.000000 28.703241
RightHand -7.747655 -0.000000 -78.443960
RightHandThumb1 -24.326973 -0.000000 -32.862282
LeftUpLeg -2.470147 40.982112 62.665279
LeftLeg -3.923533 -0.000000 0.000000
LeftFoot 39.431698 28.256522 -11.092853
LeftToeBase 19.820664 -0.000000 -0.000000
RightUpLeg 6.780112 -15.367745 -54.150941
RightLeg 0.190421 -0.000000 -0.000000
RightFoot 43.606932 4.311797 -2.818119
RightToeBase 9.688495 -0.000000 -0.000000
568
root -19.849300 36.191550 -1.320332 202.073443 -78.891408 -5.598142
Spine -33.713191 8.063604 0.241404
Head -91.770308 5.944237 -1.108583
LeftShoulder -14.068670 2.008765 24.397413
LeftArm 115.978515 -60.205309 -76.588349
LeftForeArm 7.666710 0.000000 29.813483
LeftHand -40.959565 -0.000000 95.883567
LeftHandThumb1 -26.253704 0.000000 33.147579
RightShoulder -19.513693 5.461196 -25.925647
RightArm 122.999792 45.391729 72.117768
RightForeArm -16.796797 -0.000000 28.228127
RightHand -7.482100 -0.000000 -78.358671
RightHandThumb1 -24.326973 -0.000000 -32.862282
LeftUpLeg -2.309312 40.552580 62.361110
LeftLeg -3.817636 -0.000000 0.000000
LeftFoot 39.483048 28.297681 -11.333146
LeftToeBase 20.096686 -0.000000 -0.000000
RightUpLeg 6.522477 -15.630205 -53.749011
RightLeg -0.013280 -0.000000 0.000000
RightFoot 44.032927 4.464046 -2.372297
RightToeBase 10.000766 -0.000000 -0.000000
